<svg height="512" viewBox="0 0 64 64" width="512" xmlns="http://www.w3.org/2000/svg"><g id="flat"><rect fill="#cfdfe8" height="41" rx="2" width="52" x="6" y="20"/><path d="m44 9a6 6 0 1 0 -9 5.191v1.809h6v-1.809a5.992 5.992 0 0 0 3-5.191z" fill="#fcf05a"/><rect fill="#2d75bb" height="4" rx="2" width="10" x="33" y="16"/><path d="m40 24h-4l-1-4h6z" fill="#50b4f8"/><path d="m10 32h8v14h-8z" fill="#394d5c"/><path d="m10 36h4v4h-4z" fill="#7d8d9c"/><path d="m24 45h16v12h-16z" fill="#195c85"/><path d="m40 45h10v12h-10z" fill="#b11e48"/><path d="m33 50h-2v-2h-2v2h-2v2h2v2h2v-2h2z" fill="#f4f4e6"/><path d="m43 50h4v2h-4z" fill="#f4f4e6"/><path d="m24 52h-8a3 3 0 0 1 -3-3v-3h2v3a1 1 0 0 0 1 1h8z" fill="#32b1cc"/><path d="m52 51h-2v-2h2a1 1 0 0 0 1-1v-21a1 1 0 0 0 -1-1h-14v-2h14a3 3 0 0 1 3 3v21a3 3 0 0 1 -3 3z" fill="#e1462b"/><g fill="#f4f4e6"><path d="m30 23h2v2h-2z"/><path d="m26 23h2v2h-2z"/><path d="m22 23h2v2h-2z"/><path d="m18 23h2v2h-2z"/><path d="m14 23h2v2h-2z"/><path d="m10 23h2v2h-2z"/><path d="m9 27h2v2h-2z"/><path d="m9 49h2v2h-2z"/><path d="m10 53h2v2h-2z"/><path d="m14 55h2v2h-2z"/><path d="m18 55h2v2h-2z"/><path d="m53 55h2v2h-2z"/><path d="m51 35h-2v-6h-3v-2h4a1 1 0 0 1 1 1z"/><path d="m49 37h2v2h-2z"/></g><path d="m15 32h-2v-2a3 3 0 0 1 3-3h20a1 1 0 0 0 1-1v-2h2v2a3 3 0 0 1 -3 3h-20a1 1 0 0 0 -1 1z" fill="#32b1cc"/></g></svg>